<svg width="28" height="30" viewBox="0 0 28 30" fill="none" xmlns="http://www.w3.org/2000/svg">
<g clip-path="url(#clip0_406_543)">
<path d="M9.08714 22.8783C9.08714 22.9888 8.96116 23.0772 8.80232 23.0772C8.62156 23.0938 8.49558 23.0054 8.49558 22.8783C8.49558 22.7678 8.62156 22.6794 8.78041 22.6794C8.94473 22.6628 9.08714 22.7512 9.08714 22.8783ZM7.38365 22.6296C7.34531 22.7401 7.45486 22.8672 7.61918 22.9004C7.76159 22.9556 7.92592 22.9004 7.95878 22.7899C7.99165 22.6794 7.88758 22.5523 7.72325 22.5026C7.58084 22.4639 7.42199 22.5191 7.38365 22.6296ZM9.8047 22.5357C9.64585 22.5744 9.5363 22.6794 9.55273 22.8065C9.56916 22.917 9.71158 22.9888 9.8759 22.9501C10.0347 22.9114 10.1443 22.8065 10.1279 22.6959C10.1114 22.591 9.96354 22.5191 9.8047 22.5357ZM13.4089 1.36267C5.81161 1.36267 0 7.18084 0 14.8445C0 20.972 3.82328 26.2156 9.28433 28.061C9.98545 28.1881 10.2319 27.7516 10.2319 27.3925C10.2319 27.0499 10.2155 25.1602 10.2155 23.9999C10.2155 23.9999 6.38127 24.8287 5.57608 22.3534C5.57608 22.3534 4.95164 20.7455 4.05334 20.3311C4.05334 20.3311 2.79899 19.4636 4.14098 19.4802C4.14098 19.4802 5.50487 19.5907 6.25529 20.9057C7.45485 23.0385 9.46509 22.4252 10.2484 22.0605C10.3744 21.1765 10.7304 20.5632 11.1248 20.1985C8.06286 19.8559 4.97356 19.4084 4.97356 14.093C4.97356 12.5736 5.38984 11.8111 6.26624 10.8386C6.12383 10.4795 5.65824 8.99867 6.40866 7.08691C7.55345 6.72776 10.1881 8.57874 10.1881 8.57874C11.2836 8.26933 12.4613 8.10909 13.628 8.10909C14.7947 8.10909 15.9723 8.26933 17.0678 8.57874C17.0678 8.57874 19.7025 6.72223 20.8473 7.08691C21.5977 9.00419 21.1321 10.4795 20.9897 10.8386C21.8661 11.8166 22.4029 12.5791 22.4029 14.093C22.4029 19.425 19.1767 19.8504 16.1148 20.1985C16.6187 20.635 17.0459 21.4638 17.0459 22.7622C17.0459 24.6243 17.0295 26.9283 17.0295 27.3814C17.0295 27.7406 17.2815 28.1771 17.9771 28.05C23.4546 26.2156 27.1683 20.972 27.1683 14.8445C27.1683 7.18084 21.0061 1.36267 13.4089 1.36267ZM5.32411 20.4195C5.25291 20.4748 5.26934 20.6018 5.36246 20.7068C5.4501 20.7952 5.57608 20.8339 5.64729 20.7621C5.71849 20.7068 5.70206 20.5797 5.60894 20.4748C5.5213 20.3864 5.39532 20.3477 5.32411 20.4195ZM4.73255 19.972C4.6942 20.0438 4.74898 20.1322 4.85853 20.1874C4.94617 20.2427 5.05572 20.2261 5.09406 20.1488C5.1324 20.0769 5.07763 19.9885 4.96808 19.9333C4.85853 19.9001 4.77089 19.9167 4.73255 19.972ZM6.50725 21.939C6.41961 22.0108 6.45248 22.1766 6.57846 22.2815C6.70444 22.4086 6.86329 22.4252 6.93449 22.3368C7.0057 22.265 6.97284 22.0992 6.86329 21.9942C6.74278 21.8671 6.57846 21.8506 6.50725 21.939ZM5.88282 21.1268C5.79518 21.182 5.79518 21.3257 5.88282 21.4527C5.97046 21.5798 6.11835 21.6351 6.18956 21.5798C6.2772 21.508 6.2772 21.3643 6.18956 21.2373C6.11287 21.1102 5.97046 21.0549 5.88282 21.1268Z" fill="white"/>
</g>
<defs>
<clipPath id="clip0_406_543">
<rect width="27.1683" height="28.2897" fill="white" transform="translate(0 0.920654)"/>
</clipPath>
</defs>
</svg>
