<svg width="25" height="31" viewBox="0 0 25 31" fill="none" xmlns="http://www.w3.org/2000/svg">
<g clip-path="url(#clip0_406_541)">
<path d="M12.2036 9.07548C8.74026 9.07548 5.9467 12.0425 5.9467 15.7208C5.9467 19.3992 8.74026 22.3662 12.2036 22.3662C15.667 22.3662 18.4605 19.3992 18.4605 15.7208C18.4605 12.0425 15.667 9.07548 12.2036 9.07548ZM12.2036 20.0412C9.96551 20.0412 8.13581 18.1037 8.13581 15.7208C8.13581 13.338 9.96006 11.4005 12.2036 11.4005C14.4472 11.4005 16.2714 13.338 16.2714 15.7208C16.2714 18.1037 14.4417 20.0412 12.2036 20.0412ZM20.1759 8.80365C20.1759 9.6654 19.5224 10.3537 18.7165 10.3537C17.9051 10.3537 17.2571 9.65962 17.2571 8.80365C17.2571 7.94767 17.9105 7.25364 18.7165 7.25364C19.5224 7.25364 20.1759 7.94767 20.1759 8.80365ZM24.3199 10.3768C24.2274 8.30047 23.7808 6.46129 22.3487 4.94599C20.9219 3.43068 19.1902 2.95643 17.2353 2.85232C15.2204 2.73087 9.18135 2.73087 7.1665 2.85232C5.217 2.95064 3.48532 3.4249 2.05314 4.9402C0.620969 6.4555 0.179881 8.29469 0.0818609 10.371C-0.0324953 12.5109 -0.0324953 18.9249 0.0818609 21.0649C0.174435 23.1412 0.620969 24.9804 2.05314 26.4957C3.48532 28.011 5.21155 28.4852 7.1665 28.5893C9.18135 28.7108 15.2204 28.7108 17.2353 28.5893C19.1902 28.491 20.9219 28.0168 22.3487 26.4957C23.7754 24.9804 24.2219 23.1412 24.3199 21.0649C24.4343 18.9249 24.4343 12.5167 24.3199 10.3768ZM21.717 23.361C21.2922 24.4946 20.4699 25.3679 19.3972 25.8248C17.7907 26.5015 13.9789 26.3453 12.2036 26.3453C10.4284 26.3453 6.61106 26.4957 5.01007 25.8248C3.94274 25.3737 3.12047 24.5003 2.69027 23.361C2.05314 21.6548 2.20017 17.6063 2.20017 15.7208C2.20017 13.8354 2.05859 9.78108 2.69027 8.0807C3.11502 6.94711 3.9373 6.07379 5.01007 5.61688C6.6165 4.9402 10.4284 5.09636 12.2036 5.09636C13.9789 5.09636 17.7962 4.94599 19.3972 5.61688C20.4645 6.068 21.2868 6.94133 21.717 8.0807C22.3541 9.78686 22.2071 13.8354 22.2071 15.7208C22.2071 17.6063 22.3541 21.6606 21.717 23.361Z" fill="white"/>
</g>
<defs>
<clipPath id="clip0_406_541">
<rect width="24.396" height="29.612" fill="white" transform="translate(0 0.920654)"/>
</clipPath>
</defs>
</svg>
