<svg width="25" height="30" viewBox="0 0 25 30" fill="none" xmlns="http://www.w3.org/2000/svg">
<g clip-path="url(#clip0_406_545)">
<path d="M5.52285 25.6745H0.40755V9.14828H5.52285V25.6745ZM2.96244 6.89395C1.32674 6.89395 0 5.53472 0 3.8937C1.17077e-08 3.10546 0.312114 2.3495 0.86768 1.79213C1.42325 1.23476 2.17676 0.921631 2.96244 0.921631C3.74813 0.921631 4.50164 1.23476 5.05721 1.79213C5.61277 2.3495 5.92489 3.10546 5.92489 3.8937C5.92489 5.53472 4.5976 6.89395 2.96244 6.89395ZM24.6678 25.6745H19.5635V17.6297C19.5635 15.7124 19.5249 13.2536 16.9039 13.2536C14.2444 13.2536 13.8369 15.3366 13.8369 17.4915V25.6745H8.72707V9.14828H13.6331V11.4026H13.7047C14.3876 10.1042 16.0558 8.73389 18.5446 8.73389C23.7216 8.73389 24.6733 12.1541 24.6733 16.5964V25.6745H24.6678Z" fill="white"/>
</g>
<defs>
<clipPath id="clip0_406_545">
<rect width="24.6733" height="28.2897" fill="white" transform="translate(0 0.920654)"/>
</clipPath>
</defs>
</svg>
