<svg width="32" height="30" viewBox="0 0 32 30" fill="none" xmlns="http://www.w3.org/2000/svg">
<path d="M29.7687 7.42397C29.9708 6.73331 29.7687 6.22498 28.7965 6.22498H25.5793C24.76 6.22498 24.3831 6.66148 24.181 7.1477C24.181 7.1477 22.5423 11.1867 20.2264 13.8057C19.4781 14.5627 19.134 14.8058 18.7243 14.8058C18.5222 14.8058 18.2109 14.5627 18.2109 13.872V7.42397C18.2109 6.59517 17.9815 6.22498 17.3042 6.22498H12.2462C11.7328 6.22498 11.4269 6.61175 11.4269 6.97089C11.4269 7.75549 12.5849 7.93783 12.7051 10.148V14.9439C12.7051 15.9937 12.5193 16.1871 12.1097 16.1871C11.0173 16.1871 8.36267 12.1315 6.78958 7.49028C6.47277 6.58965 6.16143 6.22498 5.33665 6.22498H2.11946C1.20183 6.22498 1.01611 6.66148 1.01611 7.1477C1.01611 8.00966 2.10854 12.2918 6.10135 17.9497C8.7614 21.8119 12.5084 23.906 15.9168 23.906C17.9651 23.906 18.2163 23.4419 18.2163 22.6407C18.2163 18.9498 18.0306 18.6017 19.0575 18.6017C19.5327 18.6017 20.352 18.8448 22.2638 20.7069C24.4486 22.917 24.8091 23.906 26.0326 23.906H29.2498C30.1675 23.906 30.6317 23.4419 30.3641 22.5247C29.7523 20.5963 25.6175 16.6292 25.4318 16.3639C24.9566 15.7451 25.0931 15.4688 25.4318 14.9163C25.4373 14.9108 29.3645 9.31916 29.7687 7.42397Z" fill="white"/>
</svg>
